<svg id="ecibcscj0y351" xmlns="http://www.w3.org/2000/svg" xmlns:xlink="http://www.w3.org/1999/xlink" viewBox="0 0 102 24" shape-rendering="geometricPrecision" text-rendering="geometricPrecision"><style><![CDATA[#ecibcscj0y3544_tr {animation: ecibcscj0y3544_tr__tr 3000ms linear infinite normal forwards}@keyframes ecibcscj0y3544_tr__tr { 0% {transform: translate(9.484217px,11.760489px) rotate(0deg)} 13.333333% {transform: translate(9.484217px,11.760489px) rotate(3deg)} 26.666667% {transform: translate(9.484217px,11.760489px) rotate(0deg)} 36.666667% {transform: translate(9.484217px,11.760489px) rotate(3deg)} 50% {transform: translate(9.484217px,11.760489px) rotate(0deg)} 63.333333% {transform: translate(9.484217px,11.760489px) rotate(3deg)} 76.666667% {transform: translate(9.484217px,11.760489px) rotate(0deg)} 86.666667% {transform: translate(9.484217px,11.760489px) rotate(3deg)} 100% {transform: translate(9.484217px,11.760489px) rotate(0deg)} }#ecibcscj0y3544_ts {animation: ecibcscj0y3544_ts__ts 3000ms linear infinite normal forwards}@keyframes ecibcscj0y3544_ts__ts { 0% {transform: scale(1,1)} 13.333333% {transform: scale(0.850000,0.850000)} 26.666667% {transform: scale(1,1)} 36.666667% {transform: scale(0.840000,0.840000)} 50% {transform: scale(1,1)} 63.333333% {transform: scale(0.850000,0.850000)} 76.666667% {transform: scale(1,1)} 86.666667% {transform: scale(0.850000,0.850000)} 100% {transform: scale(1,1)} }#ecibcscj0y3544 {animation: ecibcscj0y3544_c_o 3000ms linear infinite normal forwards}@keyframes ecibcscj0y3544_c_o { 0% {opacity: 1} 13.333333% {opacity: 0.600000} 26.666667% {opacity: 1} 36.666667% {opacity: 0.600000} 50% {opacity: 1} 63.333333% {opacity: 0.600000} 76.666667% {opacity: 1} 86.666667% {opacity: 0.600000} 100% {opacity: 1} }#ecibcscj0y3548_ts {animation: ecibcscj0y3548_ts__ts 3000ms linear infinite normal forwards}@keyframes ecibcscj0y3548_ts__ts { 0% {transform: translate(9.484217px,11.760489px) scale(1,1)} 13.333333% {transform: translate(9.484217px,11.760489px) scale(0.850000,0.850000)} 26.666667% {transform: translate(9.484217px,11.760489px) scale(1,1)} 36.666667% {transform: translate(9.484217px,11.760489px) scale(0.840000,0.840000)} 50% {transform: translate(9.484217px,11.760489px) scale(1,1)} 63.333333% {transform: translate(9.484217px,11.760489px) scale(0.850000,0.850000)} 76.666667% {transform: translate(9.484217px,11.760489px) scale(1,1)} 86.666667% {transform: translate(9.484217px,11.760489px) scale(0.850000,0.850000)} 100% {transform: translate(9.484217px,11.760489px) scale(1,1)} }#ecibcscj0y3548 {animation: ecibcscj0y3548_c_o 3000ms linear infinite normal forwards}@keyframes ecibcscj0y3548_c_o { 0% {opacity: 1} 13.333333% {opacity: 0.300000} 26.666667% {opacity: 1} 36.666667% {opacity: 0} 50% {opacity: 1} 63.333333% {opacity: 0} 76.666667% {opacity: 1} 86.666667% {opacity: 0} 100% {opacity: 1} }]]></style><defs><linearGradient id="ecibcscj0y3545-fill" x1="-0.086034" y1="0.854517" x2="4.809448" y2="-2.350112" spreadMethod="pad" gradientUnits="objectBoundingBox"><stop id="ecibcscj0y3545-fill-0" offset="0%" stop-color="rgb(237,108,14)"/><stop id="ecibcscj0y3545-fill-1" offset="100%" stop-color="rgb(246,223,65)"/></linearGradient><linearGradient id="ecibcscj0y3546-fill" x1="0.319869" y1="-0.084310" x2="0.619790" y2="0.888666" spreadMethod="pad" gradientUnits="objectBoundingBox"><stop id="ecibcscj0y3546-fill-0" offset="0%" stop-color="rgb(255,129,0)"/><stop id="ecibcscj0y3546-fill-1" offset="100%" stop-color="rgb(246,223,65)"/></linearGradient><linearGradient id="ecibcscj0y3547-fill" x1="0.210982" y1="0.839897" x2="0.833021" y2="-0.088930" spreadMethod="pad" gradientUnits="objectBoundingBox"><stop id="ecibcscj0y3547-fill-0" offset="0%" stop-color="rgb(237,108,14)"/><stop id="ecibcscj0y3547-fill-1" offset="100%" stop-color="rgb(246,223,65)"/></linearGradient><filter id="ecibcscj0y3548-filter" x="-400%" width="600%" y="-400%" height="600%"><feGaussianBlur id="ecibcscj0y3548-filter-blur-0" stdDeviation="1,1" result="result"/></filter><linearGradient id="ecibcscj0y3549-fill" x1="-0.086034" y1="0.854517" x2="4.809448" y2="-2.350112" spreadMethod="pad" gradientUnits="objectBoundingBox"><stop id="ecibcscj0y3549-fill-0" offset="0%" stop-color="rgb(237,108,14)"/><stop id="ecibcscj0y3549-fill-1" offset="100%" stop-color="rgb(246,223,65)"/></linearGradient><linearGradient id="ecibcscj0y3550-fill" x1="0.319869" y1="-0.084310" x2="0.619790" y2="0.888666" spreadMethod="pad" gradientUnits="objectBoundingBox"><stop id="ecibcscj0y3550-fill-0" offset="0%" stop-color="rgb(255,129,0)"/><stop id="ecibcscj0y3550-fill-1" offset="100%" stop-color="rgb(246,223,65)"/></linearGradient><linearGradient id="ecibcscj0y3551-fill" x1="0.210982" y1="0.839897" x2="0.833021" y2="-0.088930" spreadMethod="pad" gradientUnits="objectBoundingBox"><stop id="ecibcscj0y3551-fill-0" offset="0%" stop-color="rgb(237,108,14)"/><stop id="ecibcscj0y3551-fill-1" offset="100%" stop-color="rgb(246,223,65)"/></linearGradient></defs><g id="ecibcscj0y352" transform="matrix(1 0 0 1 0.00000000000001 -0)"><g id="ecibcscj0y353" transform="matrix(1 0 0 1 0.00000000000001 -0)"><rect id="ecibcscj0y354" width="102" height="24" rx="0" ry="0" fill="none" fill-rule="evenodd" stroke="none" stroke-width="1"/><g id="ecibcscj0y355" transform="matrix(1 0 0 1 18 4)"><path id="ecibcscj0y356" d="M2.563398,0.679926C2.585361,0.560813,2.641492,0.450497,2.725071,0.362187C2.806870,0.283419,2.917746,0.241457,3.031691,0.246143L9.442841,0.246143C9.637963,0.246143,9.721587,0.378764,9.665838,0.646771L9.309043,2.528340C9.298003,2.642774,9.251232,2.750947,9.175245,2.837791C9.114409,2.901582,9.029658,2.937585,8.941099,2.937257L5.144583,2.937257L4.472806,6.703160L7.399635,6.703160C7.484100,6.698349,7.566816,6.728345,7.628207,6.786048C7.690891,6.874441,7.709372,6.986387,7.678381,7.089973L7.357824,8.982595C7.341571,9.088017,7.290610,9.185156,7.212876,9.258890C7.136763,9.327074,7.036624,9.362807,6.934130,9.358356L4.012876,9.358356L2.975942,15.146739C2.956451,15.260893,2.906392,15.367764,2.830994,15.456190C2.758157,15.530636,2.656790,15.570826,2.552249,15.566708L0.322284,15.566708C0.068625,15.566708,-0.034511,15.428560,0.010088,15.146739L2.563398,0.679926Z" fill="rgb(15,30,41)" stroke="none" stroke-width="1"/><path id="ecibcscj0y357" d="M10.605210,0.679926C10.626603,0.561744,10.680637,0.451756,10.761308,0.362187C10.840641,0.283132,10.949981,0.240984,11.062353,0.246143L13.292318,0.246143C13.393637,0.234924,13.493052,0.279426,13.551552,0.362187C13.598916,0.461224,13.610717,0.573330,13.585001,0.679926L11.405210,12.900460L15.182214,12.900460C15.388486,12.900460,15.460959,13.024793,15.427510,13.276221L15.090228,15.168843C15.031691,15.445138,14.906256,15.566708,14.711134,15.566708L8.350158,15.566708C8.096500,15.566708,7.990576,15.428560,8.035175,15.146739L10.605210,0.679926Z" fill="rgb(15,30,41)" stroke="none" stroke-width="1"/><path id="ecibcscj0y358" d="M21.704862,15.566708C21.605639,15.572885,21.511923,15.521038,21.465141,15.434086C21.416293,15.338551,21.402497,15.229149,21.426116,15.124636L21.997545,11.914086L19.605907,11.914086L19.048416,15.135687C19.032421,15.246014,18.992479,15.351590,18.931343,15.445138C18.865678,15.530449,18.760415,15.576357,18.652597,15.566708L16.277684,15.566708C16.195726,15.566189,16.122570,15.515650,16.093712,15.439612C16.051166,15.344044,16.041376,15.237293,16.065838,15.135687L18.064444,3.843505C18.162423,3.310809,18.368181,2.803285,18.669322,2.351512C19.280727,1.412579,20.180895,0.693737,21.236569,0.301402C21.761199,0.104580,22.317431,0.003485,22.878381,0.003003C23.409111,-0.002240,23.935401,0.099272,24.425419,0.301402C24.880140,0.488131,25.288249,0.771013,25.621238,1.130287C25.940578,1.481231,26.176762,1.898472,26.312527,2.351512C26.459011,2.835554,26.483891,3.347753,26.385001,3.843505L24.386395,15.124636C24.364653,15.234392,24.318990,15.338117,24.252597,15.428560C24.188649,15.517700,24.084165,15.569483,23.973851,15.566708L21.704862,15.566708ZM20.074200,9.336253L22.454688,9.336253L23.402423,4.012045C23.431609,3.844747,23.431609,3.673724,23.402423,3.506425C23.380817,3.356233,23.325576,3.212737,23.240750,3.086457C23.158417,2.964378,23.047471,2.863887,22.917406,2.793584C22.769970,2.716140,22.604744,2.678053,22.437963,2.683066C22.258974,2.680977,22.081795,2.718745,21.919496,2.793584C21.761019,2.865507,21.616633,2.964660,21.493015,3.086457C21.369222,3.209642,21.265750,3.351364,21.186395,3.506425C21.105432,3.665719,21.049055,3.836159,21.019148,4.012045L20.074200,9.336253Z" fill="rgb(15,30,41)" stroke="none" stroke-width="1"/><path id="ecibcscj0y359" d="M26.240053,11.250978C26.259231,11.106182,26.308592,10.966925,26.385001,10.842061C26.470243,10.750510,26.594753,10.705258,26.719496,10.720491L28.754339,10.720491C28.910437,10.720491,29.005210,10.753647,29.033085,10.819957C29.068448,10.935238,29.068448,11.058335,29.033085,11.173615L28.943886,11.670946C28.895333,11.901470,28.895333,12.139449,28.943886,12.369973C28.978972,12.535417,29.055680,12.689386,29.166883,12.817571C29.266008,12.929073,29.392864,13.012901,29.534827,13.060711C29.674906,13.107790,29.821759,13.132050,29.969670,13.132548C30.324288,13.135377,30.667923,13.010714,30.936918,12.781653C31.228375,12.535211,31.420379,12.192839,31.477684,11.817383C31.530289,11.583275,31.537855,11.341430,31.499984,11.104541C31.459819,10.886063,31.378494,10.677040,31.260263,10.488403C31.117859,10.265151,30.949454,10.059278,30.758520,9.875028C30.546674,9.665044,30.293015,9.419141,30.003120,9.140083C29.504165,8.667618,29.074897,8.250413,28.715315,7.893992C28.381476,7.570992,28.091890,7.205922,27.853991,6.808152C27.638918,6.436287,27.504130,6.024189,27.458172,5.597979C27.410482,5.060492,27.440519,4.519007,27.547371,3.989942C27.649912,3.334362,27.894291,2.708521,28.263747,2.155342C28.588462,1.678132,28.995084,1.261057,29.465141,0.923066C29.888731,0.618562,30.359447,0.384340,30.858869,0.229565C31.283552,0.094636,31.725868,0.022030,32.171761,0.014055C32.701884,0.001579,33.229072,0.095563,33.721587,0.290350C34.155947,0.472270,34.538756,0.756853,34.836569,1.119235C35.135987,1.491033,35.343170,1.927310,35.441447,2.392956C35.548341,2.940467,35.548341,3.503215,35.441447,4.050727L35.327162,4.680680C35.307464,4.800791,35.255465,4.913418,35.176639,5.006708C35.072237,5.082435,34.942707,5.116015,34.814270,5.100648L32.815663,5.100648C32.673503,5.100648,32.589879,5.070256,32.564792,5.006708C32.534981,4.900040,32.534981,4.787347,32.564792,4.680680L32.665141,4.061778C32.702236,3.879937,32.709764,3.693386,32.687440,3.509188C32.669576,3.352892,32.618258,3.202177,32.536918,3.067116C32.458490,2.942344,32.349079,2.839602,32.219148,2.768717C32.063282,2.689693,31.889565,2.651639,31.714618,2.658199C31.396046,2.662091,31.088692,2.775359,30.844932,2.978701C30.701297,3.100404,30.580506,3.246324,30.488137,3.409722C30.374363,3.609076,30.297872,3.827170,30.262353,4.053490C30.220588,4.283731,30.220588,4.519511,30.262353,4.749753C30.305024,4.946334,30.383420,5.133579,30.493712,5.302344C30.614692,5.488171,30.758929,5.658063,30.922980,5.807964C31.098590,5.968215,31.293712,6.147807,31.508346,6.338450C31.961772,6.736315,32.382678,7.122208,32.771064,7.496127C33.146619,7.853600,33.475331,8.256468,33.749461,8.695248C34.019923,9.132555,34.208764,9.614546,34.306953,10.118168C34.407051,10.725607,34.397613,11.345834,34.279078,11.950005C34.186880,12.470880,33.997841,12.970239,33.721587,13.422657C33.442612,13.884274,33.089544,14.297697,32.676291,14.646645C32.247176,15.002455,31.759761,15.282802,31.235176,15.475530C30.683755,15.695913,30.095882,15.813017,29.501378,15.820899C28.914364,15.836956,28.330983,15.724701,27.792667,15.492108C27.352511,15.296617,26.969073,14.994464,26.677684,14.613490C26.399371,14.234343,26.213335,13.796510,26.134130,13.334243C26.046390,12.837930,26.046390,12.330274,26.134130,11.833960L26.240053,11.250978Z" fill="rgb(15,30,41)" stroke="none" stroke-width="1"/><path id="ecibcscj0y3510" d="M37.409391,0.679926C37.429470,0.561323,37.483673,0.450990,37.565489,0.362187C37.644219,0.282224,37.753987,0.239912,37.866534,0.246143L40.096500,0.246143C40.196870,0.235970,40.294951,0.280353,40.352945,0.362187C40.400309,0.461224,40.412111,0.573330,40.386395,0.679926L39.371761,6.390946L41.816360,6.390946L42.844932,0.679926C42.858108,0.565825,42.906823,0.458628,42.984304,0.373238C43.063398,0.289254,43.175060,0.242969,43.290925,0.246143L45.520890,0.246143C45.610218,0.243430,45.697134,0.275118,45.763399,0.334557C45.833991,0.430986,45.856553,0.553986,45.824723,0.668874L43.243538,15.146739C43.222303,15.261414,43.170309,15.368306,43.093015,15.456190C43.003797,15.537009,42.884504,15.577092,42.764095,15.566708L40.575942,15.566708C40.322283,15.566708,40.216360,15.428560,40.260959,15.146739L41.345280,9.068246L38.900681,9.068246L37.816360,15.146739C37.755036,15.423034,37.607301,15.566708,37.370367,15.566708L35.140402,15.566708C34.895106,15.566708,34.794757,15.428560,34.839357,15.146739L37.409391,0.679926Z" fill="rgb(15,30,41)" stroke="none" stroke-width="1"/><path id="ecibcscj0y3511" d="M47.424723,11.250978C47.445336,11.106525,47.494599,10.967548,47.569670,10.842061C47.654912,10.750510,47.779422,10.705258,47.904165,10.720491L49.939008,10.720491C50.095106,10.720491,50.189879,10.753647,50.217754,10.819957C50.254515,10.935028,50.254515,11.058545,50.217754,11.173615L50.128555,11.670946C50.080002,11.901470,50.080002,12.139449,50.128555,12.369973C50.163641,12.535417,50.240349,12.689386,50.351552,12.817571C50.450677,12.929073,50.577533,13.012901,50.719496,13.060711C50.859575,13.107790,51.006428,13.132050,51.154339,13.132548C51.508957,13.135377,51.852592,13.010714,52.121587,12.781653C52.414037,12.536019,52.606264,12.193249,52.662353,11.817383C52.714958,11.583275,52.722524,11.341430,52.684653,11.104541C52.644488,10.886063,52.563163,10.677040,52.444932,10.488403C52.302527,10.265151,52.134123,10.059278,51.943189,9.875028C51.731343,9.665044,51.480472,9.419141,51.187789,9.140083C50.688834,8.667618,50.259566,8.250413,49.899984,7.893992C49.566145,7.570992,49.276559,7.205922,49.038660,6.808152C48.824835,6.435740,48.690134,6.023906,48.642841,5.597979C48.595151,5.060492,48.625188,4.519007,48.732040,3.989942C48.834581,3.334362,49.078960,2.708521,49.448416,2.155342C49.773131,1.678132,50.179753,1.261057,50.649810,0.923066C51.073400,0.618562,51.544116,0.384340,52.043538,0.229565C52.468221,0.094636,52.910537,0.022030,53.356430,0.014055C53.887440,0.001814,54.415491,0.095784,54.909043,0.290350C55.343575,0.471975,55.726450,0.756607,56.024026,1.119235C56.324885,1.490142,56.532239,1.926776,56.628904,2.392956C56.735797,2.940467,56.735797,3.503215,56.628904,4.050727L56.517406,4.680680C56.495745,4.800712,56.442906,4.913079,56.364095,5.006708C56.259694,5.082435,56.130164,5.116015,56.001726,5.100648L54.003120,5.100648C53.860959,5.100648,53.777336,5.070256,53.752249,5.006708C53.723900,4.899848,53.723900,4.787539,53.752249,4.680680L53.852597,4.061778C53.889692,3.879937,53.897220,3.693386,53.874897,3.509188C53.857032,3.352892,53.805715,3.202177,53.724374,3.067116C53.645947,2.942344,53.536535,2.839602,53.406604,2.768717C53.250824,2.689457,53.077044,2.651390,52.902074,2.658199C52.583502,2.662091,52.276148,2.775359,52.032388,2.978701C51.888753,3.100404,51.767962,3.246324,51.675594,3.409722C51.454623,3.819947,51.374390,4.290325,51.447022,4.749753C51.487219,4.946636,51.564785,5.134157,51.675594,5.302344C51.796574,5.488171,51.940811,5.658063,52.104862,5.807964C52.280472,5.968215,52.475594,6.147807,52.690228,6.338450C53.143654,6.736315,53.564560,7.122208,53.952945,7.496127C54.328501,7.853600,54.657212,8.256468,54.931343,8.695248C55.201804,9.132555,55.390646,9.614546,55.488834,10.118168C55.588933,10.725607,55.579495,11.345834,55.460960,11.950005C55.368761,12.470880,55.179722,12.970239,54.903468,13.422657C54.336470,14.370388,53.458913,15.096882,52.417057,15.481056C51.866145,15.699213,51.279260,15.814434,50.686047,15.820899C50.099033,15.836956,49.515652,15.724701,48.977336,15.492108C48.537180,15.296617,48.153742,14.994464,47.862353,14.613490C47.584040,14.234343,47.398004,13.796510,47.318799,13.334243C47.231059,12.837930,47.231059,12.330274,47.318799,11.833960L47.424723,11.250978Z" fill="rgb(15,30,41)" stroke="none" stroke-width="1"/><path id="ecibcscj0y3512" d="M61.576639,15.566708C61.476439,15.574007,61.381335,15.521997,61.334130,15.434086C61.285283,15.338551,61.271486,15.229149,61.295106,15.124636L61.866534,11.914086L59.483259,11.914086L58.925768,15.135687C58.909773,15.246014,58.869830,15.351590,58.808695,15.445138C58.743030,15.530449,58.637767,15.576357,58.529949,15.566708L56.138311,15.566708C56.056353,15.566189,55.983197,15.515650,55.954339,15.439612C55.911793,15.344044,55.902003,15.237293,55.926465,15.135687L57.925071,3.843505C58.023050,3.310809,58.228808,2.803285,58.529949,2.351512C59.141354,1.412579,60.041522,0.693737,61.097196,0.301402C61.621892,0.104815,62.178081,0.003727,62.739008,0.003003C63.269795,-0.002857,63.796208,0.098679,64.286047,0.301402C64.740767,0.488131,65.148876,0.771013,65.481865,1.130287C65.805577,1.480960,66.045639,1.899263,66.184304,2.354274C66.330788,2.838317,66.355668,3.350516,66.256778,3.846268L64.258172,15.127398C64.236430,15.237155,64.190767,15.340880,64.124374,15.431323C64.060426,15.520463,63.955942,15.572246,63.845628,15.569577L61.576639,15.566708ZM59.945977,9.336253L62.323677,9.336253L63.274200,4.012045C63.300594,3.844521,63.300594,3.673950,63.274200,3.506425C63.250341,3.356381,63.194257,3.213163,63.109740,3.086457C63.027406,2.964378,62.916460,2.863887,62.786395,2.793584C62.638960,2.716140,62.473733,2.678053,62.306953,2.683066C62.127963,2.680977,61.950785,2.718745,61.788486,2.793584C61.630406,2.866198,61.486135,2.965272,61.362005,3.086457C61.238962,3.210273,61.135579,3.351873,61.055385,3.506425C60.974422,3.665719,60.918045,3.836159,60.888137,4.012045L59.945977,9.336253Z" fill="rgb(15,30,41)" stroke="none" stroke-width="1"/><path id="ecibcscj0y3513" d="M68.344583,0.679926C68.364661,0.561323,68.418865,0.450990,68.500681,0.362187C68.579411,0.282224,68.689179,0.239912,68.801726,0.246143L71.031691,0.246143C71.132061,0.235970,71.230142,0.280353,71.288137,0.362187C71.335501,0.461224,71.347303,0.573330,71.321587,0.679926L69.144583,12.900460L72.918799,12.900460C73.127858,12.900460,73.197545,13.024793,73.164095,13.276221L72.829601,15.168843C72.771064,15.445138,72.642841,15.566708,72.450507,15.566708L66.086743,15.566708C65.833085,15.566708,65.729949,15.428560,65.774548,15.146739L68.344583,0.679926Z" fill="rgb(15,30,41)" stroke="none" stroke-width="1"/><path id="ecibcscj0y3514" d="M76.450507,0.679926C76.472469,0.560813,76.528600,0.450497,76.612179,0.362187C76.694835,0.282988,76.806742,0.241017,76.921587,0.246143L83.611482,0.246143C83.812179,0.246143,83.890228,0.384290,83.845629,0.657822L83.508346,2.539392C83.463747,2.815687,83.338311,2.937257,83.129252,2.937257L79.031691,2.937257L78.393364,6.490413L81.654688,6.490413C81.742403,6.487370,81.827708,6.519202,81.891621,6.578827C81.956465,6.664089,81.977112,6.774602,81.947371,6.877226L81.610088,8.769847C81.592828,8.882568,81.535488,8.985461,81.448416,9.059957C81.368179,9.119669,81.269974,9.150818,81.169670,9.148372L77.925071,9.148372L77.256081,12.900460L81.398242,12.900460C81.480016,12.896040,81.558913,12.931025,81.610088,12.994400C81.664638,13.075744,81.680909,13.176542,81.654688,13.270695L81.320193,15.174369C81.309466,15.286230,81.257927,15.390368,81.175245,15.467242C81.107946,15.527437,81.020597,15.560888,80.929949,15.561182L74.195454,15.561182C73.941796,15.561182,73.838660,15.423034,73.883259,15.141213L76.450507,0.679926Z" fill="rgb(15,30,41)" stroke="none" stroke-width="1"/><path id="ecibcscj0y3515" d="M8.810088,0.646771L8.472806,2.528340C8.461766,2.642774,8.414995,2.750947,8.339008,2.837791C8.278172,2.901582,8.193421,2.937585,8.104862,2.937259L8.941099,2.937259C9.029658,2.937585,9.114409,2.901582,9.175245,2.837791C9.251232,2.750947,9.298003,2.642774,9.309043,2.528340L9.643538,0.646771C9.688137,0.370475,9.615663,0.246143,9.420541,0.246143L8.584304,0.246143C8.779426,0.246143,8.854688,0.378764,8.810088,0.646771Z" fill="rgb(63,75,83)" stroke="none" stroke-width="1"/><polygon id="ecibcscj0y3516" points="3.628207,6.711449 4.472806,6.711449 5.144583,2.937257 4.299984,2.937257" fill="rgb(63,75,83)" stroke="none" stroke-width="1"/><path id="ecibcscj0y3517" d="M2.131343,15.146739C2.111851,15.260893,2.061792,15.367764,1.986395,15.456190C1.913558,15.530636,1.812191,15.570826,1.707649,15.566708L2.543886,15.566708C2.648428,15.570826,2.749795,15.530636,2.822632,15.456190C2.898029,15.367764,2.948088,15.260893,2.967580,15.146739L4.012876,9.369408L3.176639,9.369408L2.131343,15.146739Z" fill="rgb(63,75,83)" stroke="none" stroke-width="1"/><path id="ecibcscj0y3518" d="M7.357824,8.982595L7.692318,7.098262C7.723309,6.994676,7.704828,6.882730,7.642144,6.794337C7.580753,6.736634,7.498037,6.706638,7.413573,6.711449L6.577336,6.711449C6.661800,6.706638,6.744516,6.736634,6.805907,6.794337C6.868591,6.882730,6.887072,6.994676,6.856081,7.098262L6.521587,8.982595C6.504170,9.087637,6.453391,9.184430,6.376639,9.258890C6.300526,9.327074,6.200387,9.362807,6.097893,9.358356L6.934130,9.358356C7.036624,9.362807,7.136763,9.327074,7.212876,9.258890C7.290610,9.185156,7.341571,9.088017,7.357824,8.982595Z" fill="rgb(63,75,83)" stroke="none" stroke-width="1"/><path id="ecibcscj0y3519" d="M15.185001,12.900460L14.348764,12.900460C14.557824,12.900460,14.641447,13.024793,14.596848,13.276221L14.259566,15.168843C14.201029,15.445138,14.075594,15.566708,13.880472,15.566708L14.716709,15.566708C14.911831,15.566708,15.037266,15.434086,15.095803,15.168843L15.441447,13.276221C15.474897,13.024793,15.391273,12.900460,15.185001,12.900460Z" fill="rgb(63,75,83)" stroke="none" stroke-width="1"/><path id="ecibcscj0y3520" d="M12.706952,0.362187C12.755679,0.460841,12.767532,0.573426,12.740402,0.679926L10.563398,12.900460L11.399635,12.900460L13.579426,0.679926C13.605143,0.573330,13.593341,0.461224,13.545977,0.362187C13.487477,0.279426,13.388062,0.234924,13.286743,0.246143L12.450506,0.246143C12.550877,0.235970,12.648958,0.280353,12.706952,0.362187Z" fill="rgb(63,75,83)" stroke="none" stroke-width="1"/><path id="ecibcscj0y3521" d="M18.192667,15.135687C18.176672,15.246014,18.136729,15.351590,18.075594,15.445138C18.009595,15.530027,17.904578,15.575829,17.796848,15.566708L18.633085,15.566708C18.740903,15.576357,18.846166,15.530449,18.911831,15.445138C18.972966,15.351590,19.012909,15.246014,19.028904,15.135687L19.586395,11.914086L18.750158,11.914086L18.192667,15.135687Z" fill="rgb(63,75,83)" stroke="none" stroke-width="1"/><path id="ecibcscj0y3522" d="M26.312527,2.351512C26.173862,1.896500,25.933800,1.478197,25.610088,1.127524C25.277099,0.768250,24.868990,0.485368,24.414270,0.298639C23.924251,0.096509,23.397962,-0.005003,22.867231,0.000240C22.725071,0.000240,22.588486,0.000240,22.440750,0.019581C22.824244,0.055980,23.200075,0.149112,23.555733,0.295876C24.009684,0.483994,24.417510,0.766680,24.751552,1.124761C25.083660,1.474059,25.331463,1.893509,25.476291,2.351512C25.622774,2.835554,25.647654,3.347753,25.548764,3.843505L23.552945,15.124636C23.531203,15.234392,23.485540,15.338117,23.419148,15.428560C23.355199,15.517700,23.250716,15.569483,23.140402,15.566814L23.976639,15.566814C24.086953,15.569483,24.191436,15.517700,24.255385,15.428560C24.321777,15.338117,24.367440,15.234392,24.389183,15.124636L26.387789,3.843505C26.485775,3.347528,26.459938,2.835326,26.312527,2.351512Z" fill="rgb(63,75,83)" stroke="none" stroke-width="1"/><path id="ecibcscj0y3523" d="M21.191970,3.506425C21.271325,3.351364,21.374797,3.209642,21.498590,3.086457C21.622207,2.964660,21.766594,2.865507,21.925071,2.793584C21.951295,2.780878,21.978293,2.769805,22.005907,2.760428C21.876951,2.707541,21.738485,2.681220,21.598939,2.683066C21.419077,2.681217,21.241044,2.718964,21.077684,2.793584C20.920455,2.866231,20.777105,2.965319,20.653991,3.086457C20.530197,3.209642,20.426726,3.351364,20.347371,3.506425C20.266408,3.665719,20.210031,3.836159,20.180123,4.012045L19.229601,9.336253L20.065838,9.336253L21.016360,4.012045C21.048908,3.835710,21.108111,3.665251,21.191970,3.506425L21.191970,3.506425Z" fill="rgb(63,75,83)" stroke="none" stroke-width="1"/><path id="ecibcscj0y3524" d="M28.199635,10.819957C28.234998,10.935238,28.234998,11.058335,28.199635,11.173615L28.110437,11.670946C28.061884,11.901470,28.061884,12.139449,28.110437,12.369973C28.145522,12.535417,28.222230,12.689386,28.333433,12.817571C28.432558,12.929073,28.559414,13.012901,28.701378,13.060711C28.841457,13.107790,28.988309,13.132050,29.136221,13.132558C29.282862,13.133111,29.428674,13.110732,29.568276,13.066237L29.545977,13.066237C29.404014,13.018427,29.277158,12.934599,29.178033,12.823097C29.066830,12.694911,28.990122,12.540943,28.955036,12.375499C28.906483,12.144975,28.906483,11.906996,28.955036,11.676472L29.044235,11.179141C29.079598,11.063861,29.079598,10.940764,29.044235,10.825483C29.005210,10.759172,28.910437,10.726017,28.765489,10.726017L27.929252,10.726017C28.065838,10.720491,28.160611,10.753647,28.199635,10.819957Z" fill="rgb(63,75,83)" stroke="none" stroke-width="1"/><path id="ecibcscj0y3525" d="M34.309740,10.137508C34.211551,9.633887,34.022710,9.151896,33.752249,8.714588C33.478118,8.275808,33.149407,7.872941,32.773851,7.515468C32.387324,7.147074,31.966418,6.761182,31.511134,6.357791C31.296499,6.167147,31.101378,5.987555,30.925768,5.827304C30.765638,5.676734,30.625172,5.506871,30.507649,5.321684C30.397358,5.152920,30.318962,4.965674,30.276291,4.769094C30.234525,4.538852,30.234525,4.303072,30.276291,4.072830C30.311809,3.846511,30.388300,3.628417,30.502074,3.429063C30.594443,3.265665,30.715234,3.119745,30.858869,2.998042C30.985737,2.891633,31.131239,2.809220,31.288137,2.754902L31.304862,2.754902C31.170396,2.704824,31.027576,2.680449,30.883956,2.683066C30.733806,2.684123,30.584911,2.710277,30.443538,2.760428C30.286639,2.814746,30.141137,2.897159,30.014270,3.003568C29.872615,3.122927,29.752030,3.264863,29.657475,3.423537C29.436505,3.833761,29.356271,4.304140,29.428904,4.763568C29.470296,4.960090,29.547773,5.147398,29.657475,5.316158C29.780335,5.501397,29.925413,5.671178,30.089531,5.821778C30.262353,5.982030,30.460263,6.161621,30.674897,6.352265C31.128323,6.750130,31.549229,7.136022,31.937614,7.509942C32.313121,7.866734,32.640990,8.269718,32.913224,8.709063C33.184793,9.145825,33.373714,9.628023,33.470716,10.131982C33.569415,10.739523,33.559981,11.359505,33.442841,11.963819C33.351786,12.485003,33.162669,12.984567,32.885350,13.436472C32.320276,14.384748,31.443354,15.111531,30.401726,15.494871C29.976163,15.655903,29.529184,15.754565,29.074897,15.787744C29.214270,15.787744,29.353642,15.807179,29.504165,15.807179C30.099375,15.810792,30.690106,15.704927,31.246325,15.494871C31.770910,15.302143,32.258326,15.021796,32.687440,14.665986C33.100694,14.317038,33.453761,13.903614,33.732737,13.441998C34.008991,12.989580,34.198030,12.490220,34.290228,11.969345C34.405991,11.364683,34.412598,10.744458,34.309740,10.137508L34.309740,10.137508Z" fill="rgb(63,75,83)" stroke="none" stroke-width="1"/><path id="ecibcscj0y3526" d="M33.994757,1.116472C34.294801,1.487537,34.501211,1.924196,34.596848,2.390193C34.705139,2.937571,34.705139,3.500586,34.596848,4.047964L34.485350,4.677917C34.465652,4.798028,34.413654,4.910655,34.334827,5.003945C34.230425,5.079672,34.100895,5.113252,33.972458,5.097885L34.808695,5.097885C34.937132,5.113252,35.066662,5.079672,35.171064,5.003945C35.249890,4.910655,35.301889,4.798028,35.321587,4.677917L35.435872,4.047964C35.542766,3.500452,35.542766,2.937704,35.435872,2.390193C35.337595,1.924547,35.130412,1.488271,34.830994,1.116472C34.533181,0.754090,34.150372,0.469507,33.716012,0.287587C33.223497,0.092800,32.696309,-0.001184,32.166186,0.011292C32.038542,0.012969,31.911073,0.021269,31.784304,0.036158C32.158198,0.067337,32.524938,0.155886,32.871412,0.298639C33.307611,0.476248,33.693292,0.757037,33.994757,1.116472L33.994757,1.116472Z" fill="rgb(63,75,83)" stroke="none" stroke-width="1"/><path id="ecibcscj0y3527" d="M45.526465,0.246143L44.690228,0.246143C44.778796,0.242972,44.865014,0.274771,44.929949,0.334557C45.003088,0.429838,45.026829,0.553639,44.994061,0.668874L42.412876,15.146739C42.391641,15.261414,42.339647,15.368306,42.262353,15.456190C42.172958,15.536713,42.053801,15.576750,41.933433,15.566708L42.769670,15.566708C42.890079,15.577092,43.009372,15.537009,43.098590,15.456190C43.175884,15.368306,43.227878,15.261414,43.249113,15.146739L45.824723,0.668874C45.853791,0.559077,45.833458,0.442181,45.768973,0.348372C45.704929,0.283889,45.617749,0.247138,45.526465,0.246143Z" fill="rgb(63,75,83)" stroke="none" stroke-width="1"/><path id="ecibcscj0y3528" d="M36.977336,15.146739C36.916012,15.423034,36.768276,15.566708,36.528555,15.566708L37.364792,15.566708C37.601726,15.566708,37.749461,15.428560,37.810785,15.146739L38.895106,9.068246L38.058869,9.068246L36.977336,15.146739Z" fill="rgb(63,75,83)" stroke="none" stroke-width="1"/><path id="ecibcscj0y3529" d="M39.511134,0.362187C39.558498,0.461224,39.570299,0.573330,39.544583,0.679926L38.529949,6.390946L39.366186,6.390946L40.389182,0.679926C40.414899,0.573330,40.403097,0.461224,40.355733,0.362187C40.297738,0.280353,40.199657,0.235970,40.099287,0.246143L39.263050,0.246143C39.360554,0.239023,39.454693,0.283058,39.511134,0.362187Z" fill="rgb(63,75,83)" stroke="none" stroke-width="1"/><path id="ecibcscj0y3530" d="M55.179426,1.116472C55.478844,1.488271,55.686028,1.924547,55.784304,2.390193C55.891198,2.937704,55.891198,3.500452,55.784304,4.047964L55.670019,4.677917C55.650321,4.798028,55.598323,4.910655,55.519496,5.003945C55.415094,5.079672,55.285564,5.113252,55.157127,5.097885L55.993364,5.097885C56.121801,5.113252,56.251331,5.079672,56.355733,5.003945C56.434544,4.910316,56.487383,4.797949,56.509043,4.677917L56.620541,4.047964C56.727435,3.500452,56.727435,2.937704,56.620541,2.390193C56.523876,1.924013,56.316523,1.487379,56.015663,1.116472C55.718088,0.753844,55.335212,0.469212,54.900681,0.287587C54.407129,0.093021,53.879077,-0.000949,53.348067,0.011292C53.220423,0.012969,53.092955,0.021269,52.966186,0.036158C53.340080,0.067337,53.706820,0.155886,54.053294,0.298639C54.490501,0.475857,54.877177,0.756674,55.179426,1.116472L55.179426,1.116472Z" fill="rgb(63,75,83)" stroke="none" stroke-width="1"/><path id="ecibcscj0y3531" d="M49.384304,10.819957C49.419667,10.935238,49.419667,11.058335,49.384304,11.173615L49.295106,11.670946C49.246553,11.901470,49.246553,12.139449,49.295106,12.369973C49.330191,12.535417,49.406900,12.689386,49.518102,12.817571C49.617227,12.929073,49.744084,13.012901,49.886047,13.060711C50.026126,13.107790,50.172978,13.132050,50.320890,13.132558C50.467531,13.133111,50.613343,13.110732,50.752946,13.066237L50.730646,13.066237C50.588683,13.018427,50.461827,12.934599,50.362702,12.823097C50.251499,12.694911,50.174791,12.540943,50.139705,12.375499C50.091152,12.144975,50.091152,11.906996,50.139705,11.676472L50.228904,11.179141C50.265665,11.064071,50.265665,10.940554,50.228904,10.825483C50.189879,10.759172,50.095106,10.726017,49.950158,10.726017L49.113921,10.726017C49.250507,10.720491,49.345280,10.753647,49.384304,10.819957Z" fill="rgb(63,75,83)" stroke="none" stroke-width="1"/><path id="ecibcscj0y3532" d="M55.494409,10.137508C55.396220,9.633887,55.207379,9.151896,54.936918,8.714588C54.662787,8.275808,54.334076,7.872941,53.958520,7.515468C53.570135,7.147074,53.149229,6.761182,52.695803,6.357791C52.481169,6.167147,52.286047,5.987555,52.110437,5.827304C51.950307,5.676734,51.809841,5.506871,51.692318,5.321684C51.581510,5.153498,51.503944,4.965977,51.463747,4.769094C51.391115,4.309665,51.471348,3.839287,51.692318,3.429063C51.784687,3.265665,51.905478,3.119745,52.049113,2.998042C52.175981,2.891633,52.321483,2.809220,52.478381,2.754902L52.495106,2.754902C52.360640,2.704824,52.217820,2.680449,52.074200,2.683066C51.755628,2.686958,51.448274,2.800226,51.204513,3.003568C51.059899,3.121499,50.937255,3.263639,50.842144,3.423537C50.728369,3.622891,50.651879,3.840985,50.616360,4.067304C50.574595,4.297546,50.574595,4.533326,50.616360,4.763568C50.659031,4.960148,50.737427,5.147394,50.847719,5.316158C50.968699,5.501986,51.112936,5.671878,51.276987,5.821778C51.452597,5.982030,51.647719,6.161621,51.862353,6.352265C52.315779,6.750130,52.736685,7.136022,53.125071,7.509942C53.500626,7.867415,53.829338,8.270283,54.103468,8.709063C54.373930,9.146370,54.562771,9.628361,54.660959,10.131982C54.761058,10.739422,54.751621,11.359648,54.633085,11.963819C54.540887,12.484694,54.351848,12.984054,54.075594,13.436472C53.796619,13.898088,53.443551,14.311512,53.030297,14.660460C52.601183,15.016270,52.113768,15.296617,51.589182,15.489345C51.164585,15.650380,50.718525,15.749047,50.265141,15.782218C50.401726,15.782218,50.543886,15.801653,50.691621,15.801653C51.286832,15.805267,51.877563,15.699401,52.433782,15.489345C53.475638,15.105171,54.353195,14.378677,54.920193,13.430946C55.196447,12.978528,55.385486,12.479169,55.477684,11.958293C55.591200,11.357059,55.596861,10.740692,55.494409,10.137508Z" fill="rgb(63,75,83)" stroke="none" stroke-width="1"/><path id="ecibcscj0y3533" d="M66.192667,2.351512C66.054001,1.896500,65.813940,1.478197,65.490228,1.127524C65.157238,0.768250,64.749129,0.485368,64.294409,0.298639C63.804571,0.095917,63.278158,-0.005620,62.747371,0.000240C62.605210,0.000240,62.468625,0.000240,62.323677,0.019581C62.707164,0.056021,63.082988,0.149151,63.438660,0.295876C63.893380,0.482605,64.301489,0.765487,64.634479,1.124761C64.958551,1.476234,65.198634,1.895518,65.336918,2.351512C65.483401,2.835554,65.508281,3.347753,65.409391,3.843505L63.410785,15.124636C63.389043,15.234392,63.343380,15.338117,63.276987,15.428560C63.213039,15.517700,63.108555,15.569483,62.998242,15.566814L63.834479,15.566814C63.944792,15.569483,64.049276,15.517700,64.113224,15.428560C64.179617,15.338117,64.225280,15.234392,64.247022,15.124636L66.245628,3.843505C66.350857,3.349323,66.332676,2.837141,66.192667,2.351512Z" fill="rgb(63,75,83)" stroke="none" stroke-width="1"/><path id="ecibcscj0y3534" d="M61.060960,3.506425C61.141154,3.351873,61.244537,3.210273,61.367580,3.086457C61.491710,2.965272,61.635981,2.866198,61.794061,2.793584C61.820285,2.780878,61.847282,2.769805,61.874897,2.760428C61.745940,2.707541,61.607475,2.681220,61.467928,2.683066C61.288939,2.680977,61.111760,2.718745,60.949461,2.793584C60.790984,2.865507,60.646598,2.964660,60.522980,3.086457C60.399187,3.209642,60.295716,3.351364,60.216360,3.506425C60.135398,3.665719,60.079020,3.836159,60.049113,4.012045L59.098590,9.336253L59.934827,9.336253L60.882562,4.012045C60.915989,3.835559,60.976134,3.665094,61.060960,3.506425L61.060960,3.506425Z" fill="rgb(63,75,83)" stroke="none" stroke-width="1"/><path id="ecibcscj0y3535" d="M58.061656,15.135687C58.045661,15.246014,58.005719,15.351590,57.944583,15.445138C57.878918,15.530449,57.773655,15.576357,57.665838,15.566708L58.502074,15.566708C58.609893,15.576357,58.715155,15.530449,58.780820,15.445138C58.841956,15.351590,58.881898,15.246014,58.897893,15.135687L59.455385,11.914086L58.619148,11.914086L58.061656,15.135687Z" fill="rgb(63,75,83)" stroke="none" stroke-width="1"/><path id="ecibcscj0y3536" d="M70.446325,0.362187C70.493689,0.461224,70.505491,0.573330,70.479775,0.679926L68.302771,12.900460L69.139008,12.900460L71.316012,0.679926C71.341728,0.573330,71.329926,0.461224,71.282562,0.362187C71.224567,0.280353,71.126486,0.235970,71.026116,0.246143L70.189879,0.246143C70.290249,0.235970,70.388330,0.280353,70.446325,0.362187Z" fill="rgb(63,75,83)" stroke="none" stroke-width="1"/><path id="ecibcscj0y3537" d="M72.921587,12.900460L72.085350,12.900460C72.294409,12.900460,72.364095,13.024793,72.330646,13.276221L71.996151,15.168843C71.937614,15.445138,71.809392,15.566708,71.617057,15.566708L72.453294,15.566708C72.645629,15.566708,72.773852,15.434086,72.832388,15.168843L73.166883,13.276221C73.211482,13.024793,73.141796,12.900460,72.921587,12.900460Z" fill="rgb(63,75,83)" stroke="none" stroke-width="1"/><polygon id="ecibcscj0y3538" points="77.548764,6.490413 78.396151,6.490413 79.031691,2.937257 78.187092,2.937257" fill="rgb(63,75,83)" stroke="none" stroke-width="1"/><polygon id="ecibcscj0y3539" points="76.411482,12.900460 77.256081,12.900460 77.925071,9.148372 77.080472,9.148372" fill="rgb(63,75,83)" stroke="none" stroke-width="1"/><path id="ecibcscj0y3540" d="M80.810088,13.276221L80.475594,15.179895C80.464867,15.291756,80.413327,15.395894,80.330646,15.472767C80.263346,15.532962,80.175998,15.566414,80.085350,15.566708L80.921587,15.566708C81.012235,15.566414,81.099583,15.532962,81.166883,15.472767C81.249564,15.395894,81.301104,15.291756,81.311830,15.179895L81.646325,13.276221C81.672547,13.182068,81.656276,13.081270,81.601726,12.999926C81.550550,12.936551,81.471654,12.901565,81.389879,12.905986L80.553642,12.905986C80.635245,12.902469,80.713748,12.937280,80.765489,12.999926C80.820039,13.081270,80.836310,13.182068,80.810088,13.276221Z" fill="rgb(63,75,83)" stroke="none" stroke-width="1"/><path id="ecibcscj0y3541" d="M83.600332,0.246143L82.764095,0.246143C82.967580,0.246143,83.042841,0.384290,83.001029,0.657822L82.663747,2.539392C82.619148,2.815687,82.493712,2.937257,82.284653,2.937257L83.120890,2.937257C83.329949,2.937257,83.455385,2.804636,83.499984,2.539392L83.837266,0.657822C83.879078,0.384290,83.801029,0.246143,83.600332,0.246143Z" fill="rgb(63,75,83)" stroke="none" stroke-width="1"/><path id="ecibcscj0y3542" d="M81.099984,6.877226L80.765489,8.769847C80.748229,8.882568,80.690888,8.985461,80.603817,9.059957C80.523580,9.119669,80.425374,9.150818,80.325071,9.148372L81.161308,9.148372C81.261611,9.150818,81.359817,9.119669,81.440054,9.059957C81.527125,8.985461,81.584465,8.882568,81.601726,8.769847L81.939008,6.877226C81.968749,6.774602,81.948103,6.664089,81.883259,6.578827C81.819345,6.519202,81.734041,6.487370,81.646325,6.490413L80.810088,6.490413C80.897060,6.486853,80.981697,6.518812,81.044235,6.578827C81.110347,6.663531,81.131111,6.774672,81.099984,6.877226Z" fill="rgb(63,75,83)" stroke="none" stroke-width="1"/></g><g id="ecibcscj0y3543" transform="matrix(1 0 0 1 1 0)"><g id="ecibcscj0y3544_tr" transform="translate(9.484217,11.760489) rotate(0)"><g id="ecibcscj0y3544_ts" transform="scale(1,1)"><g id="ecibcscj0y3544" transform="translate(-8.515782,-10.801758)"><polyline id="ecibcscj0y3545" points="7.347202,13.627912 11.316499,16.023736 6.797131,11.365055 0,21.649451 0,21.649451 7.347202,13.627912" fill="url(#ecibcscj0y3545-fill)" fill-rule="evenodd" stroke="none" stroke-width="1"/><polygon id="ecibcscj0y3546" points="11.564419,10.801758 6.575036,5.884396 -0,21.649451 6.797131,11.365055 11.316499,16.026154 17.031564,-0" fill="url(#ecibcscj0y3546-fill)" fill-rule="evenodd" stroke="none" stroke-width="1"/><polygon id="ecibcscj0y3547" points="11.564419,10.801758 17.031564,0 10.792253,8.430110 6.575036,5.884396 11.564419,10.801758" fill="url(#ecibcscj0y3547-fill)" fill-rule="evenodd" stroke="none" stroke-width="1"/></g></g></g><g id="ecibcscj0y3548_ts" transform="translate(9.484217,11.760489) scale(1,1)"><g id="ecibcscj0y3548" style="mix-blend-mode:screen" transform="translate(-8.515782,-10.801758)" filter="url(#ecibcscj0y3548-filter)"><polyline id="ecibcscj0y3549" points="7.347202,13.627912 11.316499,16.023736 6.797131,11.365055 0,21.649451 0,21.649451 7.347202,13.627912" fill="url(#ecibcscj0y3549-fill)" fill-rule="evenodd" stroke="none" stroke-width="1"/><polygon id="ecibcscj0y3550" points="11.564419,10.801758 6.575036,5.884396 -0,21.649451 6.797131,11.365055 11.316499,16.026154 17.031564,-0" fill="url(#ecibcscj0y3550-fill)" fill-rule="evenodd" stroke="none" stroke-width="1"/><polygon id="ecibcscj0y3551" points="11.564419,10.801758 17.031564,0 10.792253,8.430110 6.575036,5.884396 11.564419,10.801758" fill="url(#ecibcscj0y3551-fill)" fill-rule="evenodd" stroke="none" stroke-width="1"/></g></g></g></g></g></svg>